<svg width="98" height="18" viewBox="0 0 98 18" fill="none" xmlns="http://www.w3.org/2000/svg">
<path d="M10.2976 2.63248L11.6176 5.27248C11.7976 5.63998 12.2776 5.99248 12.6826 6.05998L15.0751 6.45748C16.6051 6.71248 16.9651 7.82248 15.8626 8.91748L14.0026 10.7775C13.6876 11.0925 13.5151 11.7 13.6126 12.135L14.1451 14.4375C14.5651 16.26 13.5976 16.965 11.9851 16.0125L9.74255 14.685C9.33755 14.445 8.67005 14.445 8.25755 14.685L6.01505 16.0125C4.41005 16.965 3.43505 16.2525 3.85505 14.4375L4.38755 12.135C4.48505 11.7 4.31255 11.0925 3.99755 10.7775L2.13755 8.91748C1.04255 7.82248 1.39505 6.71248 2.92505 6.45748L5.31755 6.05998C5.71505 5.99248 6.19505 5.63998 6.37505 5.27248L7.69505 2.63248C8.41505 1.19998 9.58505 1.19998 10.2976 2.63248Z" fill="#FF6129"/>
<path d="M30.2976 2.63248L31.6176 5.27248C31.7976 5.63998 32.2776 5.99248 32.6826 6.05998L35.0751 6.45748C36.6051 6.71248 36.9651 7.82248 35.8626 8.91748L34.0026 10.7775C33.6876 11.0925 33.5151 11.7 33.6126 12.135L34.1451 14.4375C34.5651 16.26 33.5976 16.965 31.9851 16.0125L29.7426 14.685C29.3376 14.445 28.6701 14.445 28.2576 14.685L26.0151 16.0125C24.4101 16.965 23.4351 16.2525 23.8551 14.4375L24.3876 12.135C24.4851 11.7 24.3126 11.0925 23.9976 10.7775L22.1376 8.91748C21.0426 7.82248 21.3951 6.71248 22.9251 6.45748L25.3176 6.05998C25.7151 5.99248 26.1951 5.63998 26.3751 5.27248L27.6951 2.63248C28.4151 1.19998 29.5851 1.19998 30.2976 2.63248Z" fill="#FF6129"/>
<path d="M50.2976 2.63248L51.6176 5.27248C51.7976 5.63998 52.2776 5.99248 52.6826 6.05998L55.0751 6.45748C56.6051 6.71248 56.9651 7.82248 55.8626 8.91748L54.0026 10.7775C53.6876 11.0925 53.5151 11.7 53.6126 12.135L54.1451 14.4375C54.5651 16.26 53.5976 16.965 51.9851 16.0125L49.7426 14.685C49.3376 14.445 48.6701 14.445 48.2576 14.685L46.0151 16.0125C44.4101 16.965 43.4351 16.2525 43.8551 14.4375L44.3876 12.135C44.4851 11.7 44.3126 11.0925 43.9976 10.7775L42.1376 8.91748C41.0426 7.82248 41.3951 6.71248 42.9251 6.45748L45.3176 6.05998C45.7151 5.99248 46.1951 5.63998 46.3751 5.27248L47.6951 2.63248C48.4151 1.19998 49.5851 1.19998 50.2976 2.63248Z" fill="#FF6129"/>
<path d="M70.2976 2.63248L71.6176 5.27248C71.7976 5.63998 72.2776 5.99248 72.6826 6.05998L75.0751 6.45748C76.6051 6.71248 76.9651 7.82248 75.8626 8.91748L74.0026 10.7775C73.6876 11.0925 73.5151 11.7 73.6126 12.135L74.1451 14.4375C74.5651 16.26 73.5976 16.965 71.9851 16.0125L69.7426 14.685C69.3376 14.445 68.6701 14.445 68.2576 14.685L66.0151 16.0125C64.4101 16.965 63.4351 16.2525 63.8551 14.4375L64.3876 12.135C64.4851 11.7 64.3126 11.0925 63.9976 10.7775L62.1376 8.91748C61.0426 7.82248 61.3951 6.71248 62.9251 6.45748L65.3176 6.05998C65.7151 5.99248 66.1951 5.63998 66.3751 5.27248L67.6951 2.63248C68.4151 1.19998 69.5851 1.19998 70.2976 2.63248Z" fill="#FF6129"/>
<path d="M90.2976 2.63248L91.6176 5.27248C91.7976 5.63998 92.2776 5.99248 92.6826 6.05998L95.0751 6.45748C96.6051 6.71248 96.9651 7.82248 95.8626 8.91748L94.0026 10.7775C93.6876 11.0925 93.5151 11.7 93.6126 12.135L94.1451 14.4375C94.5651 16.26 93.5976 16.965 91.9851 16.0125L89.7426 14.685C89.3376 14.445 88.6701 14.445 88.2576 14.685L86.0151 16.0125C84.4101 16.965 83.4351 16.2525 83.8551 14.4375L84.3876 12.135C84.4851 11.7 84.3126 11.0925 83.9976 10.7775L82.1376 8.91748C81.0426 7.82248 81.3951 6.71248 82.9251 6.45748L85.3176 6.05998C85.7151 5.99248 86.1951 5.63998 86.3751 5.27248L87.6951 2.63248C88.4151 1.19998 89.5851 1.19998 90.2976 2.63248Z" fill="#FF6129"/>
</svg>
